<mxfile host="app.diagrams.net" agent="Mozilla/5.0 (X11; Linux x86_64; rv:132.0) Gecko/20100101 Firefox/132.0" version="24.9.1">
  <diagram name="Page-1" id="6iQ1iisU0MsXhUL3hrb0">
    <mxGraphModel dx="1362" dy="808" grid="1" gridSize="10" guides="1" tooltips="1" connect="1" arrows="1" fold="1" page="1" pageScale="1" pageWidth="850" pageHeight="1100" math="0" shadow="0">
      <root>
        <mxCell id="0" />
        <mxCell id="1" parent="0" />
        <mxCell id="kqbpaamZI5d2fWeG4EFv-1" value="Start" style="strokeWidth=2;html=1;shape=mxgraph.flowchart.start_2;whiteSpace=wrap;fontFamily=Times New Roman;fontSize=16;" vertex="1" parent="1">
          <mxGeometry x="360" y="80" width="160" height="100" as="geometry" />
        </mxCell>
        <mxCell id="kqbpaamZI5d2fWeG4EFv-5" style="edgeStyle=orthogonalEdgeStyle;rounded=0;orthogonalLoop=1;jettySize=auto;html=1;" edge="1" parent="1" source="kqbpaamZI5d2fWeG4EFv-2">
          <mxGeometry relative="1" as="geometry">
            <mxPoint x="440" y="620" as="targetPoint" />
          </mxGeometry>
        </mxCell>
        <mxCell id="kqbpaamZI5d2fWeG4EFv-2" value="int length, width, perimeter" style="shape=parallelogram;html=1;strokeWidth=2;perimeter=parallelogramPerimeter;whiteSpace=wrap;rounded=1;arcSize=12;size=0.23;fontFamily=Times New Roman;fontSize=14;" vertex="1" parent="1">
          <mxGeometry x="330" y="350" width="220" height="60" as="geometry" />
        </mxCell>
        <mxCell id="kqbpaamZI5d2fWeG4EFv-3" value="" style="endArrow=classic;html=1;rounded=0;exitX=0.5;exitY=1;exitDx=0;exitDy=0;exitPerimeter=0;" edge="1" parent="1" source="kqbpaamZI5d2fWeG4EFv-1" target="kqbpaamZI5d2fWeG4EFv-2">
          <mxGeometry width="50" height="50" relative="1" as="geometry">
            <mxPoint x="400" y="320" as="sourcePoint" />
            <mxPoint x="450" y="270" as="targetPoint" />
          </mxGeometry>
        </mxCell>
        <mxCell id="kqbpaamZI5d2fWeG4EFv-11" style="edgeStyle=orthogonalEdgeStyle;rounded=0;orthogonalLoop=1;jettySize=auto;html=1;" edge="1" parent="1" source="kqbpaamZI5d2fWeG4EFv-6" target="kqbpaamZI5d2fWeG4EFv-10">
          <mxGeometry relative="1" as="geometry" />
        </mxCell>
        <mxCell id="kqbpaamZI5d2fWeG4EFv-6" value="input length" style="shape=parallelogram;html=1;strokeWidth=2;perimeter=parallelogramPerimeter;whiteSpace=wrap;rounded=1;arcSize=12;size=0.23;fontFamily=Times New Roman;fontSize=16;" vertex="1" parent="1">
          <mxGeometry x="350" y="620" width="180" height="60" as="geometry" />
        </mxCell>
        <mxCell id="kqbpaamZI5d2fWeG4EFv-27" style="edgeStyle=orthogonalEdgeStyle;rounded=0;orthogonalLoop=1;jettySize=auto;html=1;entryX=0.5;entryY=0;entryDx=0;entryDy=0;" edge="1" parent="1" source="kqbpaamZI5d2fWeG4EFv-7" target="kqbpaamZI5d2fWeG4EFv-24">
          <mxGeometry relative="1" as="geometry" />
        </mxCell>
        <mxCell id="kqbpaamZI5d2fWeG4EFv-7" value="input width" style="shape=parallelogram;html=1;strokeWidth=2;perimeter=parallelogramPerimeter;whiteSpace=wrap;rounded=1;arcSize=12;size=0.23;fontFamily=Times New Roman;fontSize=16;" vertex="1" parent="1">
          <mxGeometry x="350" y="1380" width="180" height="60" as="geometry" />
        </mxCell>
        <mxCell id="kqbpaamZI5d2fWeG4EFv-21" style="edgeStyle=orthogonalEdgeStyle;rounded=0;orthogonalLoop=1;jettySize=auto;html=1;entryX=0.5;entryY=1;entryDx=0;entryDy=0;" edge="1" parent="1" source="kqbpaamZI5d2fWeG4EFv-10" target="kqbpaamZI5d2fWeG4EFv-12">
          <mxGeometry relative="1" as="geometry" />
        </mxCell>
        <mxCell id="kqbpaamZI5d2fWeG4EFv-23" style="edgeStyle=orthogonalEdgeStyle;rounded=0;orthogonalLoop=1;jettySize=auto;html=1;" edge="1" parent="1" source="kqbpaamZI5d2fWeG4EFv-10" target="kqbpaamZI5d2fWeG4EFv-7">
          <mxGeometry relative="1" as="geometry" />
        </mxCell>
        <mxCell id="kqbpaamZI5d2fWeG4EFv-10" value="while length &amp;lt;= 0" style="shape=parallelogram;html=1;strokeWidth=2;perimeter=parallelogramPerimeter;whiteSpace=wrap;rounded=1;arcSize=12;size=0.23;fontFamily=Times New Roman;fontSize=16;" vertex="1" parent="1">
          <mxGeometry x="350" y="1040" width="180" height="60" as="geometry" />
        </mxCell>
        <mxCell id="kqbpaamZI5d2fWeG4EFv-22" style="edgeStyle=orthogonalEdgeStyle;rounded=0;orthogonalLoop=1;jettySize=auto;html=1;entryX=0;entryY=0.25;entryDx=0;entryDy=0;" edge="1" parent="1" source="kqbpaamZI5d2fWeG4EFv-12" target="kqbpaamZI5d2fWeG4EFv-6">
          <mxGeometry relative="1" as="geometry">
            <Array as="points">
              <mxPoint x="185" y="640" />
            </Array>
          </mxGeometry>
        </mxCell>
        <mxCell id="kqbpaamZI5d2fWeG4EFv-12" value="&lt;div align=&quot;left&quot;&gt;The length should be greater than 0&lt;br&gt;&lt;/div&gt;" style="shape=parallelogram;html=1;strokeWidth=2;perimeter=parallelogramPerimeter;whiteSpace=wrap;rounded=1;arcSize=12;size=0.23;fontFamily=Times New Roman;" vertex="1" parent="1">
          <mxGeometry x="60" y="810" width="250" height="60" as="geometry" />
        </mxCell>
        <mxCell id="kqbpaamZI5d2fWeG4EFv-33" style="edgeStyle=orthogonalEdgeStyle;rounded=0;orthogonalLoop=1;jettySize=auto;html=1;" edge="1" parent="1" source="kqbpaamZI5d2fWeG4EFv-24" target="kqbpaamZI5d2fWeG4EFv-32">
          <mxGeometry relative="1" as="geometry" />
        </mxCell>
        <mxCell id="kqbpaamZI5d2fWeG4EFv-24" value="while width &amp;lt;= 0" style="shape=parallelogram;html=1;strokeWidth=2;perimeter=parallelogramPerimeter;whiteSpace=wrap;rounded=1;arcSize=12;size=0.23;fontFamily=Times New Roman;fontSize=16;" vertex="1" parent="1">
          <mxGeometry x="350" y="1900" width="180" height="60" as="geometry" />
        </mxCell>
        <mxCell id="kqbpaamZI5d2fWeG4EFv-26" style="edgeStyle=orthogonalEdgeStyle;rounded=0;orthogonalLoop=1;jettySize=auto;html=1;entryX=0;entryY=0.5;entryDx=0;entryDy=0;" edge="1" parent="1" source="kqbpaamZI5d2fWeG4EFv-25" target="kqbpaamZI5d2fWeG4EFv-7">
          <mxGeometry relative="1" as="geometry">
            <Array as="points">
              <mxPoint x="200" y="1410" />
            </Array>
          </mxGeometry>
        </mxCell>
        <mxCell id="kqbpaamZI5d2fWeG4EFv-25" value="&lt;div align=&quot;left&quot;&gt;The width should be greater than 0&lt;br&gt;&lt;/div&gt;" style="shape=parallelogram;html=1;strokeWidth=2;perimeter=parallelogramPerimeter;whiteSpace=wrap;rounded=1;arcSize=12;size=0.23;fontFamily=Times New Roman;" vertex="1" parent="1">
          <mxGeometry x="60" y="1680" width="250" height="60" as="geometry" />
        </mxCell>
        <mxCell id="kqbpaamZI5d2fWeG4EFv-28" style="edgeStyle=orthogonalEdgeStyle;rounded=0;orthogonalLoop=1;jettySize=auto;html=1;entryX=0.552;entryY=0.933;entryDx=0;entryDy=0;entryPerimeter=0;" edge="1" parent="1" source="kqbpaamZI5d2fWeG4EFv-24" target="kqbpaamZI5d2fWeG4EFv-25">
          <mxGeometry relative="1" as="geometry" />
        </mxCell>
        <mxCell id="kqbpaamZI5d2fWeG4EFv-29" value="True" style="text;html=1;align=center;verticalAlign=middle;whiteSpace=wrap;rounded=0;fontFamily=Times New Roman;" vertex="1" parent="1">
          <mxGeometry x="130" y="990" width="60" height="30" as="geometry" />
        </mxCell>
        <mxCell id="kqbpaamZI5d2fWeG4EFv-30" value="False" style="text;html=1;align=center;verticalAlign=middle;whiteSpace=wrap;rounded=0;fontFamily=Times New Roman;" vertex="1" parent="1">
          <mxGeometry x="365" y="1190" width="60" height="30" as="geometry" />
        </mxCell>
        <mxCell id="kqbpaamZI5d2fWeG4EFv-31" value="True" style="text;html=1;align=center;verticalAlign=middle;whiteSpace=wrap;rounded=0;fontFamily=Times New Roman;" vertex="1" parent="1">
          <mxGeometry x="120" y="1800" width="60" height="30" as="geometry" />
        </mxCell>
        <mxCell id="kqbpaamZI5d2fWeG4EFv-35" style="edgeStyle=orthogonalEdgeStyle;rounded=0;orthogonalLoop=1;jettySize=auto;html=1;" edge="1" parent="1" source="kqbpaamZI5d2fWeG4EFv-32" target="kqbpaamZI5d2fWeG4EFv-34">
          <mxGeometry relative="1" as="geometry" />
        </mxCell>
        <mxCell id="kqbpaamZI5d2fWeG4EFv-32" value="perimeter = (width + length)*2" style="shape=parallelogram;html=1;strokeWidth=2;perimeter=parallelogramPerimeter;whiteSpace=wrap;rounded=1;arcSize=12;size=0.23;fontFamily=Times New Roman;fontSize=16;" vertex="1" parent="1">
          <mxGeometry x="295" y="2450" width="290" height="60" as="geometry" />
        </mxCell>
        <mxCell id="kqbpaamZI5d2fWeG4EFv-34" value="End" style="strokeWidth=2;html=1;shape=mxgraph.flowchart.start_2;whiteSpace=wrap;fontFamily=Times New Roman;fontSize=16;" vertex="1" parent="1">
          <mxGeometry x="360" y="2950" width="160" height="100" as="geometry" />
        </mxCell>
      </root>
    </mxGraphModel>
  </diagram>
</mxfile>
